<mxfile host="65bd71144e">
    <diagram id="9GOSIzSt5ZUlFtkNZdQf" name="Page-1">
        <mxGraphModel dx="1693" dy="820" grid="1" gridSize="10" guides="1" tooltips="1" connect="1" arrows="1" fold="1" page="1" pageScale="1" pageWidth="850" pageHeight="1100" math="0" shadow="0">
            <root>
                <mxCell id="0"/>
                <mxCell id="1" parent="0"/>
                <mxCell id="2" value="&lt;font color=&quot;#ffffff&quot;&gt;User Interface&lt;/font&gt;" style="rounded=1;whiteSpace=wrap;html=1;fillColor=#93c47dff;strokeColor=none;glass=0;shadow=0;" parent="1" vertex="1">
                    <mxGeometry x="40" y="40" width="120" height="40" as="geometry"/>
                </mxCell>
                <mxCell id="3" value="&lt;font color=&quot;#ffffff&quot;&gt;Application&lt;br&gt;&lt;/font&gt;" style="rounded=1;whiteSpace=wrap;html=1;fillColor=#ea9999ff;strokeColor=none;glass=0;shadow=0;" parent="1" vertex="1">
                    <mxGeometry x="40" y="100" width="250" height="40" as="geometry"/>
                </mxCell>
                <mxCell id="4" value="&lt;font color=&quot;#ffffff&quot;&gt;Domain&lt;/font&gt;" style="rounded=1;whiteSpace=wrap;html=1;fillColor=#FFB366;strokeColor=none;glass=0;shadow=0;" parent="1" vertex="1">
                    <mxGeometry x="40" y="160" width="250" height="40" as="geometry"/>
                </mxCell>
                <mxCell id="5" value="&lt;font color=&quot;#ffffff&quot;&gt;Infrastructure&lt;/font&gt;" style="rounded=1;whiteSpace=wrap;html=1;fillColor=#a4c2f4ff;strokeColor=none;" parent="1" vertex="1">
                    <mxGeometry x="170" y="40" width="120" height="40" as="geometry"/>
                </mxCell>
            </root>
        </mxGraphModel>
    </diagram>
</mxfile>
